<svg xmlns="http://www.w3.org/2000/svg" viewBox="0 0 14.98 16"><title>Asset 41</title><g id="Layer_2" data-name="Layer 2"><g id="Layer_1-2" data-name="Layer 1"><path d="M1,3.8H14" fill="none" stroke="#788af8" stroke-linecap="round" stroke-linejoin="round" stroke-width="2"/><path d="M4.61,3.8V2.4a1.38,1.38,0,0,1,.42-1A1.47,1.47,0,0,1,6,1H8.94a1.48,1.48,0,0,1,1,.41,1.38,1.38,0,0,1,.42,1V3.8m2.16,0v9.8a1.38,1.38,0,0,1-.42,1,1.47,1.47,0,0,1-1,.41H3.89a1.45,1.45,0,0,1-1-.41,1.39,1.39,0,0,1-.43-1V3.8Z" fill="none" stroke="#788af8" stroke-linecap="round" stroke-linejoin="round" stroke-width="2"/></g></g></svg>