<svg xmlns="http://www.w3.org/2000/svg" viewBox="0 0 16.42 16"><title>Asset 39</title><g id="Layer_2" data-name="Layer 2"><g id="Layer_1-2" data-name="Layer 1"><path d="M7.45,2.48h-5a1.45,1.45,0,0,0-1,.41,1.37,1.37,0,0,0-.42,1v9.74a1.37,1.37,0,0,0,.42,1,1.45,1.45,0,0,0,1,.41h10a1.43,1.43,0,0,0,1-.41,1.37,1.37,0,0,0,.42-1V8.74" fill="none" stroke="#788af8" stroke-linecap="round" stroke-linejoin="round" stroke-width="2"/><path d="M12.83,1.43A1.53,1.53,0,0,1,13.9,1,1.55,1.55,0,0,1,15,1.43a1.46,1.46,0,0,1,0,2.09L8.17,10.13l-2.87.7L6,8Z" fill="none" stroke="#788af8" stroke-linecap="round" stroke-linejoin="round" stroke-width="2"/></g></g></svg>